<svg width="100" height="100" viewBox="0 0 100 100" fill="none" xmlns="http://www.w3.org/2000/svg">
<g transform="translate(0,7080) scale(0.05208333,-0.05208333)" fill="#000000" stroke="none">
<path d="M2703 6586 c-425 -231 -772 -425 -770 -429 2 -7 1526 -824 1548 -830
9 -3 1539 945 1539 953 0 9 -1517 730 -1533 729 -6 -1 -360 -191 -784 -423z"/>
<path d="M13880 6690 l-545 -308 -3 -251 -2 -251 -420 0 -420 0 0 -480 0 -480
420 0 419 0 4 -1097 c3 -1170 3 -1151 53 -1373 129 -572 501 -951 1054 -1074
312 -69 749 -53 1101 39 74 20 313 100 327 110 4 4 -299 930 -308 939 -5 5
-44 -6 -92 -26 -345 -147 -686 -124 -865 59 -68 70 -129 192 -148 298 -12 66
-14 263 -15 1102 l0 1023 623 2 622 3 3 478 2 477 -620 0 -620 0 0 560 c0 442
-3 560 -12 559 -7 -1 -258 -140 -558 -309z"/>
<path d="M27083 6689 l-553 -311 0 -2494 0 -2494 560 0 560 0 2 1014 3 1015
876 -1012 875 -1012 667 -3 667 -2 0 48 0 48 -1035 1140 c-569 626 -1034 1144
-1032 1151 1 6 413 472 915 1034 763 855 912 1026 912 1050 l0 29 -669 0 -670
0 -753 -898 -753 -899 -3 1454 c-1 799 -5 1453 -10 1453 -4 0 -256 -140 -559
-311z"/>
<path d="M4320 5641 l-815 -518 -6 -564 c-3 -310 -7 -1152 -8 -1870 l-1 -1306
820 -472 c452 -259 823 -471 825 -471 3 0 5 427 5 948 l0 948 -820 444 c-451
245 -820 447 -820 450 0 3 370 213 823 467 l822 461 3 1001 c1 551 -1 1001 -5
1000 -5 0 -375 -233 -823 -518z"/>
<path d="M9975 6014 c-185 -16 -467 -71 -635 -125 -86 -28 -254 -101 -338
-146 -397 -216 -636 -541 -693 -941 -17 -121 -7 -364 20 -480 48 -207 134
-370 275 -519 106 -112 228 -206 351 -270 374 -196 665 -268 1335 -328 553
-50 761 -176 761 -460 0 -50 -6 -101 -17 -131 -87 -258 -452 -434 -849 -409
-462 29 -1035 239 -1353 496 -41 34 -88 77 -105 96 -25 28 -32 32 -43 21 -7
-7 -132 -186 -279 -398 l-266 -385 80 -76 c408 -390 889 -619 1457 -694 175
-23 591 -37 754 -25 608 46 1050 222 1356 542 289 301 410 676 364 1124 -22
220 -106 451 -221 605 -64 87 -197 214 -290 276 -311 210 -695 313 -1374 368
-311 26 -475 60 -625 132 -332 159 -329 562 6 713 231 104 624 129 974 60 241
-47 443 -143 639 -303 73 -60 74 -60 90 -39 9 11 146 173 305 360 158 187 289
344 289 348 1 13 -158 139 -264 209 -212 141 -430 237 -678 299 -225 57 -403
77 -711 81 -146 1 -287 1 -315 -1z"/>
<path d="M24050 6010 c-838 -79 -1504 -495 -1839 -1149 -151 -294 -230 -585
-262 -960 -15 -175 -7 -527 16 -691 144 -1046 833 -1749 1884 -1919 391 -64
833 -45 1174 49 199 55 421 153 587 258 138 88 450 340 450 364 0 5 -105 112
-232 236 -128 124 -295 287 -370 361 l-137 134 -36 -29 c-125 -102 -183 -141
-290 -194 -139 -69 -208 -92 -360 -120 -337 -63 -710 -12 -965 133 -363 205
-574 556 -610 1017 -51 643 261 1179 805 1385 218 82 506 106 731 60 217 -45
443 -151 605 -287 25 -21 48 -38 51 -38 12 0 693 722 693 734 0 7 -31 42 -70
77 -349 320 -712 498 -1155 564 -134 20 -522 29 -670 15z"/>
<path d="M18314 5989 c-1093 -105 -1842 -802 -2003 -1861 -55 -358 -50 -724
14 -1073 165 -894 715 -1502 1556 -1719 347 -89 753 -107 1044 -46 300 63 563
179 786 347 126 94 260 247 320 363 18 34 24 40 26 25 3 -24 53 -613 53 -626
0 -5 220 -9 525 -9 l525 0 0 2250 0 2250 -535 0 -535 0 0 -22 c0 -24 -29 -525
-33 -568 -2 -21 -9 -14 -51 50 -66 100 -229 260 -344 338 -237 162 -532 270
-824 301 -110 12 -401 12 -524 0z m662 -1005 c278 -42 552 -194 725 -401 76
-90 135 -176 172 -250 273 -539 195 -1225 -186 -1650 -239 -267 -559 -403
-954 -404 -392 -1 -713 122 -959 369 -254 254 -384 593 -384 1003 0 676 385
1182 1004 1320 175 39 383 44 582 13z"/>
<path d="M1072 3649 c-441 -273 -805 -499 -808 -501 -3 -3 264 -155 593 -338
329 -184 704 -393 834 -465 l236 -132 774 504 c426 277 775 507 777 512 2 7
-435 257 -1508 863 l-95 54 -803 -497z"/>
<path d="M6143 2827 l-823 -511 0 -944 c0 -519 4 -942 8 -940 5 1 376 223 825
492 l817 489 0 963 c0 530 -1 964 -2 963 -2 0 -373 -230 -825 -512z"/>
<path d="M230 1972 l0 -948 816 -449 c449 -248 821 -452 825 -453 5 -2 8 409
7 948 l-3 952 -815 449 c-448 247 -818 449 -822 449 -5 0 -8 -426 -8 -948z"/>
</g>
</svg>
